<svg xmlns="http://www.w3.org/2000/svg" viewBox="0 0 1024 1024" width="1024" height="1024">
  <rect width="1024" height="1024" rx="184.32" ry="184.32" fill="#F5F1E8"/>
  <g transform="translate(293.58079999999995,798.72) scale(0.38912,-0.38912)" fill="#17160F"><path d="M218 418Q218 418 252.5 429.0Q287 440 342.5 456.5Q398 473 462.5 493.0Q527 513 588.0 531.5Q649 550 694 565L660 525Q670 560 676.5 607.5Q683 655 684 715Q684 772 664.0 805.5Q644 839 607 839Q573 839 539.0 812.5Q505 786 475.5 736.5Q446 687 425.0 618.5Q404 550 396 466Q384 322 434.0 248.5Q484 175 587 175Q642 175 690.0 194.5Q738 214 778.5 249.0Q819 284 850 331Q876 362 893.0 373.5Q910 385 931 384Q955 383 969.5 362.0Q984 341 972 294Q952 211 886.5 137.5Q821 64 711.5 18.5Q602 -27 446 -27Q298 -27 205.5 23.0Q113 73 75.0 164.0Q37 255 47 381Q58 502 109.0 606.5Q160 711 243.5 790.0Q327 869 435.5 913.5Q544 958 670 958Q770 958 834.0 923.5Q898 889 931.5 831.0Q965 773 974 699Q977 679 984.5 663.5Q992 648 1006 644Q1020 640 1028.0 631.5Q1036 623 1036 607Q1036 585 1019.0 566.5Q1002 548 955 534Q910 522 839.5 501.5Q769 481 687.0 457.0Q605 433 524.0 409.0Q443 385 375.5 366.0Q308 347 267.5 335.0Q227 323 227 323Z"/></g>
  <polygon points="442.14,287.71 634.77,217.78 609.84,156.06 422.69,239.57" fill="#C89A3C"/>
</svg>