<svg xmlns="http://www.w3.org/2000/svg" viewBox="0 0 935.20 246.60" width="935.20" height="246.60">
<g transform="translate(10.0,0)">
<g transform="translate(0,195.60000000000002) scale(0.1,-0.1)" fill="#17160F"><path d="M985 380 883 347 1259 1309Q1278 1360 1304.5 1380.0Q1331 1400 1377 1400H1666Q1697 1400 1712.5 1388.0Q1728 1376 1728 1354Q1728 1335 1717.5 1322.5Q1707 1310 1685 1303L1634 1289Q1600 1280 1588.0 1262.0Q1576 1244 1578 1204L1654 181Q1656 147 1668.5 133.0Q1681 119 1711 110L1761 97Q1782 90 1791.5 78.0Q1801 66 1801 48Q1801 28 1786.0 14.0Q1771 0 1740 0H1258Q1227 0 1211.5 12.5Q1196 25 1196 46Q1196 64 1205.5 76.5Q1215 89 1239 97L1290 110Q1325 120 1337.5 135.0Q1350 150 1348 181L1265 1232L1358 1238L931 137Q913 89 894.0 74.5Q875 60 849 60Q830 60 814.0 65.5Q798 71 784.5 88.0Q771 105 756 141L323 1209L412 1241L325 211Q322 168 343.5 146.0Q365 124 403 108L452 91Q468 84 477.0 74.5Q486 65 486 48Q486 26 471.0 13.0Q456 0 425 0H107Q76 0 61.0 12.5Q46 25 46 46Q46 67 59.0 78.5Q72 90 93 98L133 112Q167 123 187.5 146.0Q208 169 211 212L294 1186Q298 1233 284.5 1256.5Q271 1280 237 1289L188 1302Q165 1309 154.0 1321.0Q143 1333 143 1353Q143 1400 206 1400H491Q534 1400 560.5 1382.5Q587 1365 607 1313Z"/></g>
<g transform="translate(185.3,195.60000000000002) scale(0.1,-0.1)" fill="#17160F"><path d="M600 970Q755 970 872.0 907.0Q989 844 1054.5 731.5Q1120 619 1120 470Q1120 329 1052.5 217.0Q985 105 866.0 40.0Q747 -25 590 -25Q436 -25 319.5 39.0Q203 103 137.0 215.5Q71 328 71 475Q71 618 138.5 729.5Q206 841 325.0 905.5Q444 970 600 970ZM671 80Q739 90 780.5 142.5Q822 195 833.5 287.0Q845 379 821 508Q798 637 754.0 720.5Q710 804 650.0 841.0Q590 878 520 866Q451 855 409.5 802.5Q368 750 357.5 658.5Q347 567 370 437Q393 309 437.0 225.5Q481 142 541.0 105.0Q601 68 671 80Z"/></g>
<g transform="translate(304.40000000000003,195.60000000000002) scale(0.1,-0.1)" fill="#17160F"><path d="M471 902V160Q471 129 480.0 115.0Q489 101 507 94L543 84Q575 71 575 44Q575 0 519 0H133Q105 0 92.0 11.0Q79 22 79 41Q79 56 87.5 66.5Q96 77 115 84L155 94Q173 101 181.5 115.0Q190 129 190 160V733Q190 759 182.5 770.0Q175 781 158 784L105 788Q87 792 79.0 801.0Q71 810 71 824Q71 841 80.5 851.0Q90 861 117 871L303 939Q341 953 364.0 959.0Q387 965 408 965Q439 965 455.0 947.5Q471 930 471 902ZM441 679 395 726 434 761Q560 874 650.0 922.0Q740 970 821 970Q944 970 1012.0 887.5Q1080 805 1095 668L1151 163Q1154 130 1162.0 115.0Q1170 100 1189 94L1224 84Q1243 77 1252.0 66.5Q1261 56 1261 41Q1261 22 1248.0 11.0Q1235 0 1206 0H816Q761 0 761 44Q761 71 792 84L830 94Q849 101 859.5 116.0Q870 131 866 163L814 627Q804 714 769.5 758.0Q735 802 668 802Q626 802 579.5 780.0Q533 758 481 714Z"/></g>
<g transform="translate(432.1,195.60000000000002) scale(0.1,-0.1)" fill="#17160F"><path d="M996 591Q996 538 966.0 509.5Q936 481 878 481H254V557H663Q714 557 714 603Q714 735 666.0 803.5Q618 872 537 872Q475 872 427.0 834.0Q379 796 352.0 725.5Q325 655 325 555Q325 362 415.5 265.0Q506 168 657 168Q745 168 811.5 203.0Q878 238 915 303Q933 323 943.5 330.0Q954 337 965 337Q981 337 988.0 322.5Q995 308 995 288Q991 204 935.0 132.5Q879 61 784.0 18.0Q689 -25 566 -25Q421 -25 309.0 34.5Q197 94 133.5 201.5Q70 309 70 453Q70 604 130.5 721.0Q191 838 304.0 904.0Q417 970 574 970Q708 970 802.5 921.5Q897 873 946.5 787.5Q996 702 996 591ZM604 1297Q634 1362 671.0 1398.5Q708 1435 765 1428Q815 1422 840.0 1386.5Q865 1351 860 1311Q854 1267 824.5 1235.0Q795 1203 742 1173L565 1049Q550 1042 534.5 1042.0Q519 1042 508 1051Q497 1062 499.5 1075.5Q502 1089 510 1102Z"/></g>
<g transform="translate(538.7,195.60000000000002) scale(0.1,-0.1)" fill="#17160F"><path d="M126 849 80 863Q56 871 46.0 881.5Q36 892 36 906Q36 926 49.5 936.5Q63 947 86 947H147Q171 947 187.0 956.0Q203 965 220 988L329 1141Q350 1167 369.0 1179.0Q388 1191 407 1191Q428 1191 440.0 1178.0Q452 1165 452 1140V285Q452 215 479.5 178.0Q507 141 556 141Q593 141 613.5 155.5Q634 170 646.0 189.0Q658 208 669.5 222.5Q681 237 699 238Q714 238 722.5 228.0Q731 218 731 195Q730 138 693.5 89.0Q657 40 592.0 9.5Q527 -21 444 -21Q316 -21 243.5 43.5Q171 108 171 238V790Q171 816 160.5 828.5Q150 841 126 849ZM341 848V947H672Q695 947 708.5 937.5Q722 928 722 910Q722 884 696.0 866.0Q670 848 612 848Z"/></g>
<g transform="translate(616.5,195.60000000000002) scale(0.1,-0.1)" fill="#17160F"><path d="M472 902V160Q472 129 480.5 114.5Q489 100 507 94L545 84Q564 78 573.0 67.5Q582 57 582 41Q582 22 569.0 11.0Q556 0 527 0H133Q105 0 92.0 11.0Q79 22 79 41Q79 56 88.0 66.5Q97 77 116 84L155 94Q173 101 181.5 115.0Q190 129 190 160V733Q190 759 182.5 770.0Q175 781 158 784L105 788Q87 792 79.0 801.0Q71 810 71 824Q71 841 80.5 851.0Q90 861 117 871L303 939Q342 953 365.5 959.0Q389 965 405 965Q439 965 455.5 947.5Q472 930 472 902ZM309 1118Q229 1118 180.5 1159.5Q132 1201 132 1268Q132 1335 180.5 1375.5Q229 1416 309 1416Q390 1416 438.5 1375.5Q487 1335 487 1268Q487 1201 438.5 1159.5Q390 1118 309 1118Z"/></g>
<g transform="translate(679.9,195.60000000000002) scale(0.1,-0.1)" fill="#17160F"><path d="M130 0Q101 0 90.0 11.0Q79 22 79 41Q79 56 87.5 66.5Q96 77 116 84L155 94Q173 101 181.5 115.0Q190 129 190 160V1255Q190 1280 182.5 1291.0Q175 1302 158 1305L105 1309Q87 1314 79.0 1323.0Q71 1332 71 1346Q71 1362 80.5 1372.0Q90 1382 117 1392L303 1460Q341 1474 364.0 1480.5Q387 1487 408 1487Q439 1487 455.0 1469.5Q471 1452 471 1423V160Q471 129 480.0 115.0Q489 101 507 94L543 84Q575 71 575 44Q575 0 519 0ZM387 434 797 768Q832 796 828.5 820.5Q825 845 786 857L751 866Q732 872 725.0 881.0Q718 890 718 905Q718 925 732.0 936.0Q746 947 771 947H1121Q1145 947 1159.5 936.0Q1174 925 1174 907Q1174 888 1162.0 876.0Q1150 864 1112 855Q1061 844 1021.5 822.0Q982 800 922 752L418 349ZM734 673 1090 159Q1114 126 1132.0 112.5Q1150 99 1183 88Q1204 78 1214.5 66.0Q1225 54 1225 39Q1225 21 1210.5 10.5Q1196 0 1172 0H764Q742 0 729.0 11.0Q716 22 716 41Q716 54 723.0 63.0Q730 72 746 78L778 87Q806 95 808.0 111.5Q810 128 782 167L546 508Z"/></g>
<g transform="translate(803.1,195.60000000000002) scale(0.1,-0.1)" fill="#17160F"><path d="M685 127V148L666 152V749Q666 819 630.5 857.5Q595 896 530 896Q471 896 439.0 871.0Q407 846 407 809V721Q407 661 367.0 628.5Q327 596 254 596Q192 596 160.0 625.5Q128 655 128 706Q128 769 180.0 829.5Q232 890 333.0 929.5Q434 969 582 969Q766 969 855.5 894.5Q945 820 945 693V173Q945 145 956.5 131.0Q968 117 989 117Q1011 117 1022.0 127.5Q1033 138 1041 149Q1046 156 1052.0 160.5Q1058 165 1067 165Q1079 165 1085.0 156.0Q1091 147 1091 132Q1091 98 1067.5 62.0Q1044 26 997.5 0.5Q951 -25 881 -25Q792 -25 738.5 15.5Q685 56 685 127ZM86 209Q86 334 197.5 411.0Q309 488 509 488Q574 488 626.5 477.0Q679 466 717 447L695 383Q661 399 625.5 408.0Q590 417 549 417Q466 417 419.5 374.5Q373 332 373 257Q373 182 412.5 142.0Q452 102 515 102Q569 102 618.5 126.5Q668 151 702 195L724 138Q669 60 576.5 17.5Q484 -25 380 -25Q249 -25 167.5 40.0Q86 105 86 209Z"/></g>
</g>
</svg>