<svg xmlns="http://www.w3.org/2000/svg" viewBox="0 0 887.30 246.60" width="887.30" height="246.60">
<g transform="translate(10.0,0)">
<g transform="translate(0,195.60000000000002) scale(0.1,-0.1)" fill="#17160F"><path d="M897 386 804 334 1414 1319Q1444 1366 1477.0 1383.0Q1510 1400 1543 1400H1774Q1803 1400 1814.0 1389.5Q1825 1379 1824 1360Q1823 1340 1810.0 1328.5Q1797 1317 1777 1311L1719 1298Q1697 1293 1682.5 1276.0Q1668 1259 1662 1229Q1654 1185 1641.0 1115.0Q1628 1045 1611.5 960.0Q1595 875 1577.0 782.0Q1559 689 1541.5 597.5Q1524 506 1509.0 423.5Q1494 341 1482.5 277.0Q1471 213 1466 176Q1460 146 1468.0 126.5Q1476 107 1500 101L1562 85Q1579 79 1588.5 70.0Q1598 61 1596 45Q1595 24 1579.5 12.0Q1564 0 1535 0H1096Q1066 0 1054.5 11.5Q1043 23 1044 42Q1045 61 1058.0 71.5Q1071 82 1088 88L1150 101Q1176 108 1193.0 126.0Q1210 144 1218 181Q1228 240 1242.0 313.5Q1256 387 1273.0 471.5Q1290 556 1307.5 646.0Q1325 736 1342.5 827.0Q1360 918 1375.5 1005.5Q1391 1093 1403 1172L1432 1178L847 212Q819 172 798.0 156.5Q777 141 746 141Q722 141 704.5 161.0Q687 181 679 217Q667 286 655.0 362.5Q643 439 631.0 520.0Q619 601 606.5 684.5Q594 768 581.0 851.5Q568 935 554.5 1017.0Q541 1099 528 1176L568 1183L289 230Q275 173 285.5 142.5Q296 112 331 101L384 87Q420 72 418 47Q416 25 398.5 12.5Q381 0 350 0H40Q9 0 -3.0 12.0Q-15 24 -14 43Q-13 62 0.5 73.5Q14 85 35 91L80 103Q107 110 127.0 126.5Q147 143 165.0 179.5Q183 216 201 283L469 1212Q481 1250 473.5 1270.5Q466 1291 442 1298L377 1314Q359 1321 350.5 1330.5Q342 1340 343 1356Q344 1377 360.5 1388.5Q377 1400 404 1400H637Q680 1400 707.0 1376.5Q734 1353 745 1297Q756 1231 767.5 1159.5Q779 1088 791.0 1013.0Q803 938 815.5 859.5Q828 781 841.0 701.5Q854 622 868.0 542.5Q882 463 897 386Z"/></g>
<g transform="translate(172.8,195.60000000000002) scale(0.1,-0.1)" fill="#17160F"><path d="M641 942Q773 939 865.0 881.0Q957 823 996.5 717.5Q1036 612 1009 465Q989 355 937.0 264.0Q885 173 808.5 108.0Q732 43 637.0 9.0Q542 -25 435 -22Q306 -19 215.0 38.5Q124 96 85.0 202.0Q46 308 72 454Q93 565 144.0 656.0Q195 747 270.5 812.0Q346 877 440.0 911.0Q534 945 641 942ZM435 72Q475 67 513.5 81.5Q552 96 587.5 128.0Q623 160 653.5 208.5Q684 257 708.0 321.5Q732 386 749 465Q775 589 769.0 671.5Q763 754 730.0 798.0Q697 842 640 848Q601 852 563.5 837.5Q526 823 491.5 791.5Q457 760 427.0 711.5Q397 663 373.0 598.0Q349 533 332 454Q306 330 311.5 247.5Q317 165 349.5 121.5Q382 78 435 72Z"/></g>
<g transform="translate(280.70000000000005,195.60000000000002) scale(0.1,-0.1)" fill="#17160F"><path d="M143 719Q130 725 130.0 742.5Q130 760 143 785Q182 856 255.5 898.5Q329 941 420 941Q479 941 513.0 915.0Q547 889 547 838Q547 808 534.5 769.5Q522 731 500.5 679.5Q479 628 450.5 559.0Q422 490 391 399L382 435Q439 577 510.5 674.5Q582 772 658.5 830.5Q735 889 809.0 915.0Q883 941 944 941Q1030 941 1067.0 904.0Q1104 867 1102.0 800.0Q1100 733 1067 641L939 276Q912 198 919.5 167.5Q927 137 952 137Q968 137 985.5 146.5Q1003 156 1028 181Q1046 196 1057.5 200.0Q1069 204 1080 199Q1092 193 1092.0 175.5Q1092 158 1079 133Q1041 62 968.5 20.0Q896 -22 806 -22Q738 -22 704.0 7.5Q670 37 668.5 93.5Q667 150 694 228L825 603Q859 697 848.5 736.0Q838 775 786 775Q748 775 698.5 749.5Q649 724 597.5 673.5Q546 623 498.5 547.5Q451 472 415 372Q394 312 381.5 274.5Q369 237 363.5 213.5Q358 190 358 174Q358 147 367.0 127.0Q376 107 376 80Q376 34 323.5 6.0Q271 -22 181 -22Q111 -22 96.0 28.5Q81 79 118 180L283 642Q311 719 303.5 750.0Q296 781 270 781Q255 781 237.5 771.5Q220 762 194 737Q177 722 165.5 718.0Q154 714 143 719Z"/></g>
<g transform="translate(401.20000000000005,195.60000000000002) scale(0.1,-0.1)" fill="#17160F"><path d="M190 414Q190 414 226.5 427.5Q263 441 322.0 462.0Q381 483 449.0 507.5Q517 532 582.0 555.5Q647 579 695 597L669 564Q678 591 683.0 626.0Q688 661 688 708Q688 772 661.5 813.0Q635 854 590 854Q546 854 500.0 821.0Q454 788 413.5 728.5Q373 669 345.0 588.5Q317 508 310 414Q299 268 353.5 194.0Q408 120 511 120Q571 120 626.5 142.5Q682 165 727.0 208.0Q772 251 799 311Q816 335 829.0 343.5Q842 352 857 352Q875 351 885.5 335.5Q896 320 888 286Q871 207 811.0 136.5Q751 66 650.5 22.0Q550 -22 409 -22Q286 -22 206.0 23.0Q126 68 91.0 151.0Q56 234 64 350Q73 470 121.5 577.0Q170 684 248.5 766.0Q327 848 427.0 894.5Q527 941 639 941Q723 941 779.0 909.5Q835 878 864.5 824.5Q894 771 899 704Q901 688 908.0 676.5Q915 665 929 664Q943 664 950.5 657.0Q958 650 958 637Q958 620 943.5 605.5Q929 591 889 578Q848 564 781.5 541.5Q715 519 637.5 492.0Q560 465 482.0 438.5Q404 412 340.0 390.0Q276 368 237.0 354.5Q198 341 198 341ZM737 1287Q783 1347 826.0 1381.0Q869 1415 918 1408Q961 1403 975.5 1371.0Q990 1339 975 1304Q959 1264 924.0 1234.0Q889 1204 833 1175L623 1047Q608 1041 594.0 1040.5Q580 1040 574 1049Q565 1058 571.0 1070.0Q577 1082 588 1095Z"/></g>
<g transform="translate(500.70000000000005,195.60000000000002) scale(0.1,-0.1)" fill="#17160F"><path d="M248 799 176 815Q158 821 149.5 832.5Q141 844 141 859Q141 879 158.0 891.0Q175 903 203 903H284Q311 903 331.0 913.5Q351 924 370 945L486 1092Q501 1110 517.0 1116.5Q533 1123 550 1123Q572 1123 582.5 1112.5Q593 1102 593 1082Q593 1070 589.5 1050.0Q586 1030 578 1004L367 301Q337 204 352.5 171.0Q368 138 422 138Q465 138 503.0 157.5Q541 177 583 223Q596 237 605.5 242.5Q615 248 625 248Q638 248 646.0 239.0Q654 230 651 214Q647 178 616.5 137.0Q586 96 535.0 60.0Q484 24 417.0 1.0Q350 -22 272 -22Q192 -22 151.0 10.5Q110 43 105.5 107.5Q101 172 130 268L263 698Q280 750 276.0 771.0Q272 792 248 799ZM450 802 481 899H745Q784 899 784 865Q784 836 759.0 819.0Q734 802 691 802Z"/></g>
<g transform="translate(577.2,195.60000000000002) scale(0.1,-0.1)" fill="#17160F"><path d="M377 276Q350 199 357.5 168.0Q365 137 390 137Q406 137 423.5 147.0Q441 157 466 181Q484 197 495.5 201.0Q507 205 518 199Q530 193 530.0 176.0Q530 159 517 133Q479 63 406.5 20.5Q334 -22 244 -22Q176 -22 141.5 8.0Q107 38 106.0 94.5Q105 151 134 230L286 642Q315 719 307.5 750.0Q300 781 274 781Q258 781 240.5 771.5Q223 762 197 737Q180 722 168.5 718.0Q157 714 146 719Q133 725 133.0 742.5Q133 760 146 785Q184 855 256.0 898.0Q328 941 416 941Q479 941 513.5 911.5Q548 882 552.0 824.0Q556 766 525 681ZM489 1116Q417 1116 380.0 1153.0Q343 1190 347 1243Q351 1286 377.5 1322.5Q404 1359 449.0 1381.5Q494 1404 553 1404Q628 1404 662.0 1366.0Q696 1328 691 1275Q688 1230 661.0 1194.0Q634 1158 590.0 1137.0Q546 1116 489 1116Z"/></g>
<g transform="translate(642.1,195.60000000000002) scale(0.1,-0.1)" fill="#17160F"><path d="M421 557Q427 591 439.0 637.0Q451 683 467.5 743.5Q484 804 506.0 880.0Q528 956 554 1049Q581 1145 618.0 1206.0Q655 1267 702.0 1296.5Q749 1326 804 1326Q839 1326 872.0 1305.5Q905 1285 938.0 1258.5Q971 1232 1006.0 1211.5Q1041 1191 1080 1191Q1140 1191 1174.0 1224.0Q1208 1257 1208 1305Q1208 1363 1146.0 1400.0Q1084 1437 959 1437Q782 1437 651.0 1381.0Q520 1325 433.0 1215.5Q346 1106 299 943L75 151Q59 97 59.5 58.5Q60 20 81.0 0.0Q102 -20 145 -20Q206 -20 250.5 -8.0Q295 4 318.5 27.0Q342 50 342 79Q342 107 335.0 127.0Q328 147 328 174Q328 190 331.5 212.0Q335 234 346.0 278.5Q357 323 378 404Q403 497 448.5 575.5Q494 654 551.5 710.5Q609 767 669.0 797.0Q729 827 782 823Q831 819 853.5 789.5Q876 760 867 710Q856 643 799.0 585.5Q742 528 625.5 481.0Q509 434 319 399V327Q577 371 745.5 433.0Q914 495 1001.5 573.0Q1089 651 1100 741Q1112 834 1059.0 885.5Q1006 937 901 941Q814 944 734.0 915.5Q654 887 585.5 833.5Q517 780 465.0 705.5Q413 631 383 541ZM533 400 613 140Q637 58 674.5 19.0Q712 -20 781 -22Q841 -23 890.5 -1.0Q940 21 974.5 62.5Q1009 104 1021 160Q1027 183 1021.5 195.0Q1016 207 1004 210Q994 212 983.5 207.5Q973 203 957 185Q944 168 927.0 154.5Q910 141 888 143Q862 145 841.5 167.0Q821 189 803 244L733 450Z"/></g>
<g transform="translate(754.8000000000001,195.60000000000002) scale(0.1,-0.1)" fill="#17160F"><path d="M877 276Q856 196 863.0 165.5Q870 135 893 135Q910 135 926.5 145.0Q943 155 969 179Q987 194 998.5 198.0Q1010 202 1020 197Q1033 191 1033.0 173.5Q1033 156 1020 131Q982 61 911.0 19.5Q840 -22 763 -22Q700 -22 669.5 9.5Q639 41 639 100Q639 123 642.5 151.0Q646 179 655.0 218.0Q664 257 680.0 313.0Q696 369 720 448L740 407Q690 271 615.0 175.0Q540 79 450.5 28.5Q361 -22 266 -22Q155 -22 94.5 51.5Q34 125 50 281Q60 381 101.0 477.0Q142 573 209.0 657.0Q276 741 365.0 804.5Q454 868 560.5 904.5Q667 941 785 941Q879 941 941.5 927.5Q1004 914 1034.0 891.0Q1064 868 1061 840Q1058 816 1044.5 803.5Q1031 791 1016.5 778.5Q1002 766 995 742ZM296 289Q286 190 310.5 150.0Q335 110 380 110Q422 110 469.5 144.0Q517 178 565.0 238.0Q613 298 655.5 377.5Q698 457 730.0 550.0Q762 643 777 741Q786 797 771.5 822.5Q757 848 722 848Q664 848 606.5 816.0Q549 784 496.5 728.5Q444 673 401.5 601.5Q359 530 331.5 450.0Q304 370 296 289Z"/></g>
</g>
</svg>